<mxfile host="app.diagrams.net" modified="2023-07-02T02:37:27.226Z" agent="Mozilla/5.0 (Windows NT 10.0; Win64; x64) AppleWebKit/537.36 (KHTML, like Gecko) Chrome/114.0.0.0 Safari/537.36" etag="oFtUAEyeSdnMZuaG-is7" version="21.5.2" type="github">
  <diagram name="Page-1" id="13e1069c-82ec-6db2-03f1-153e76fe0fe0">
    <mxGraphModel dx="875" dy="521" grid="1" gridSize="10" guides="1" tooltips="1" connect="1" arrows="1" fold="1" page="1" pageScale="1" pageWidth="1169" pageHeight="827" background="none" math="0" shadow="0">
      <root>
        <mxCell id="0" />
        <mxCell id="1" parent="0" />
        <mxCell id="7baba1c4bc27f4b0-2" value="公司車租借Index" style="shape=umlLifeline;perimeter=lifelinePerimeter;whiteSpace=wrap;html=1;container=1;collapsible=0;recursiveResize=0;outlineConnect=0;rounded=1;shadow=0;comic=0;labelBackgroundColor=none;strokeWidth=1;fontFamily=Verdana;fontSize=12;align=center;" parent="1" vertex="1">
          <mxGeometry x="240" y="30" width="100" height="240" as="geometry" />
        </mxCell>
        <mxCell id="7baba1c4bc27f4b0-10" value="" style="html=1;points=[];perimeter=orthogonalPerimeter;rounded=0;shadow=0;comic=0;labelBackgroundColor=none;strokeWidth=1;fontFamily=Verdana;fontSize=12;align=center;" parent="7baba1c4bc27f4b0-2" vertex="1">
          <mxGeometry x="45" y="100" width="10" height="110" as="geometry" />
        </mxCell>
        <mxCell id="7baba1c4bc27f4b0-14" value="2.經過Controller Index" style="html=1;verticalAlign=bottom;endArrow=block;entryX=0;entryY=0;labelBackgroundColor=none;fontFamily=Verdana;fontSize=12;edgeStyle=elbowEdgeStyle;elbow=vertical;" parent="7baba1c4bc27f4b0-2" edge="1">
          <mxGeometry relative="1" as="geometry">
            <mxPoint x="55" y="130" as="sourcePoint" />
            <mxPoint x="205" y="130.0000000000001" as="targetPoint" />
            <mxPoint as="offset" />
          </mxGeometry>
        </mxCell>
        <mxCell id="CgW-vPD1ngV3lKJaUCEp-12" value="return" style="html=1;verticalAlign=bottom;endArrow=open;dashed=1;endSize=8;labelBackgroundColor=none;fontFamily=Verdana;fontSize=12;" edge="1" parent="7baba1c4bc27f4b0-2">
          <mxGeometry relative="1" as="geometry">
            <mxPoint x="55" y="170" as="targetPoint" />
            <mxPoint x="210" y="170" as="sourcePoint" />
          </mxGeometry>
        </mxCell>
        <mxCell id="7baba1c4bc27f4b0-7" value="DataBase" style="shape=umlLifeline;perimeter=lifelinePerimeter;whiteSpace=wrap;html=1;container=1;collapsible=0;recursiveResize=0;outlineConnect=0;rounded=1;shadow=0;comic=0;labelBackgroundColor=none;strokeWidth=1;fontFamily=Verdana;fontSize=12;align=center;" parent="1" vertex="1">
          <mxGeometry x="740" y="30" width="100" height="240" as="geometry" />
        </mxCell>
        <mxCell id="CgW-vPD1ngV3lKJaUCEp-9" value="" style="html=1;points=[];perimeter=orthogonalPerimeter;rounded=0;shadow=0;comic=0;labelBackgroundColor=none;strokeColor=#000000;strokeWidth=1;fillColor=#FFFFFF;fontFamily=Verdana;fontSize=12;fontColor=#000000;align=center;" vertex="1" parent="7baba1c4bc27f4b0-7">
          <mxGeometry x="45" y="130" width="10" height="60" as="geometry" />
        </mxCell>
        <mxCell id="7baba1c4bc27f4b0-27" value="return" style="html=1;verticalAlign=bottom;endArrow=open;dashed=1;endSize=8;labelBackgroundColor=none;fontFamily=Verdana;fontSize=12;" parent="7baba1c4bc27f4b0-7" edge="1">
          <mxGeometry relative="1" as="geometry">
            <mxPoint x="-105" y="180" as="targetPoint" />
            <mxPoint x="35" y="180" as="sourcePoint" />
            <mxPoint as="offset" />
          </mxGeometry>
        </mxCell>
        <mxCell id="7baba1c4bc27f4b0-11" value="1.進入公司車租借首頁" style="html=1;verticalAlign=bottom;endArrow=block;labelBackgroundColor=none;fontFamily=Verdana;fontSize=12;edgeStyle=elbowEdgeStyle;elbow=vertical;exitX=1.32;exitY=0.127;exitDx=0;exitDy=0;exitPerimeter=0;" parent="1" edge="1">
          <mxGeometry x="0.0245" y="10" relative="1" as="geometry">
            <mxPoint x="150.00000000000006" y="149.85000000000002" as="sourcePoint" />
            <mxPoint x="286.3" y="149.5" as="targetPoint" />
            <mxPoint as="offset" />
          </mxGeometry>
        </mxCell>
        <mxCell id="CgW-vPD1ngV3lKJaUCEp-1" value="Actor" style="shape=umlActor;verticalLabelPosition=bottom;verticalAlign=top;html=1;outlineConnect=0;" vertex="1" parent="1">
          <mxGeometry x="130" y="10" width="30" height="60" as="geometry" />
        </mxCell>
        <mxCell id="CgW-vPD1ngV3lKJaUCEp-2" value="" style="html=1;points=[];perimeter=orthogonalPerimeter;rounded=0;shadow=0;comic=0;labelBackgroundColor=none;strokeWidth=1;fontFamily=Verdana;fontSize=12;align=center;" vertex="1" parent="1">
          <mxGeometry x="140" y="130" width="10" height="120" as="geometry" />
        </mxCell>
        <mxCell id="CgW-vPD1ngV3lKJaUCEp-5" value="Model&lt;br&gt;CarUsageHitory" style="shape=umlLifeline;perimeter=lifelinePerimeter;whiteSpace=wrap;html=1;container=1;collapsible=0;recursiveResize=0;outlineConnect=0;rounded=1;shadow=0;comic=0;labelBackgroundColor=none;strokeWidth=1;fontFamily=Verdana;fontSize=12;align=center;" vertex="1" parent="1">
          <mxGeometry x="570" y="30" width="120" height="240" as="geometry" />
        </mxCell>
        <mxCell id="CgW-vPD1ngV3lKJaUCEp-7" value="3.經過Model" style="html=1;verticalAlign=bottom;endArrow=block;labelBackgroundColor=none;fontFamily=Verdana;fontSize=12;edgeStyle=elbowEdgeStyle;elbow=vertical;exitX=0.9;exitY=0.237;exitDx=0;exitDy=0;exitPerimeter=0;" edge="1" parent="CgW-vPD1ngV3lKJaUCEp-5">
          <mxGeometry relative="1" as="geometry">
            <mxPoint x="-121" y="140.17999999999995" as="sourcePoint" />
            <mxPoint x="55" y="140" as="targetPoint" />
            <Array as="points">
              <mxPoint x="-25" y="140" />
            </Array>
          </mxGeometry>
        </mxCell>
        <mxCell id="CgW-vPD1ngV3lKJaUCEp-6" value="" style="html=1;points=[];perimeter=orthogonalPerimeter;rounded=0;shadow=0;comic=0;labelBackgroundColor=none;strokeWidth=1;fontFamily=Verdana;fontSize=12;align=center;" vertex="1" parent="CgW-vPD1ngV3lKJaUCEp-5">
          <mxGeometry x="55" y="110" width="10" height="90" as="geometry" />
        </mxCell>
        <mxCell id="CgW-vPD1ngV3lKJaUCEp-13" value="" style="endArrow=none;dashed=1;html=1;rounded=0;exitX=0.52;exitY=0.011;exitDx=0;exitDy=0;exitPerimeter=0;" edge="1" parent="1" source="CgW-vPD1ngV3lKJaUCEp-2" target="CgW-vPD1ngV3lKJaUCEp-1">
          <mxGeometry width="50" height="50" relative="1" as="geometry">
            <mxPoint x="140" y="130" as="sourcePoint" />
            <mxPoint x="143" y="80" as="targetPoint" />
          </mxGeometry>
        </mxCell>
        <mxCell id="CgW-vPD1ngV3lKJaUCEp-3" value="Controller&lt;br&gt;CarUseageHistory" style="shape=umlLifeline;perimeter=lifelinePerimeter;whiteSpace=wrap;html=1;container=1;collapsible=0;recursiveResize=0;outlineConnect=0;rounded=1;shadow=0;comic=0;labelBackgroundColor=none;strokeWidth=1;fontFamily=Verdana;fontSize=12;align=center;" vertex="1" parent="1">
          <mxGeometry x="390" y="30" width="120" height="240" as="geometry" />
        </mxCell>
        <mxCell id="CgW-vPD1ngV3lKJaUCEp-11" value="return" style="html=1;verticalAlign=bottom;endArrow=open;dashed=1;endSize=8;labelBackgroundColor=none;fontFamily=Verdana;fontSize=12;" edge="1" parent="CgW-vPD1ngV3lKJaUCEp-3">
          <mxGeometry relative="1" as="geometry">
            <mxPoint x="65" y="169.5" as="targetPoint" />
            <mxPoint x="230" y="170" as="sourcePoint" />
          </mxGeometry>
        </mxCell>
        <mxCell id="CgW-vPD1ngV3lKJaUCEp-4" value="" style="html=1;points=[];perimeter=orthogonalPerimeter;rounded=0;shadow=0;comic=0;labelBackgroundColor=none;strokeWidth=1;fontFamily=Verdana;fontSize=12;align=center;" vertex="1" parent="CgW-vPD1ngV3lKJaUCEp-3">
          <mxGeometry x="55" y="100" width="10" height="110" as="geometry" />
        </mxCell>
        <mxCell id="CgW-vPD1ngV3lKJaUCEp-8" value="" style="html=1;verticalAlign=bottom;endArrow=block;labelBackgroundColor=none;fontFamily=Verdana;fontSize=12;edgeStyle=elbowEdgeStyle;elbow=vertical;exitX=0.9;exitY=0.237;exitDx=0;exitDy=0;exitPerimeter=0;" edge="1" parent="1">
          <mxGeometry relative="1" as="geometry">
            <mxPoint x="635.5" y="180" as="sourcePoint" />
            <mxPoint x="785" y="180.5" as="targetPoint" />
          </mxGeometry>
        </mxCell>
        <mxCell id="CgW-vPD1ngV3lKJaUCEp-15" value="4.連接資料庫" style="edgeLabel;html=1;align=center;verticalAlign=middle;resizable=0;points=[];" vertex="1" connectable="0" parent="CgW-vPD1ngV3lKJaUCEp-8">
          <mxGeometry x="-0.0493" y="2" relative="1" as="geometry">
            <mxPoint y="-8" as="offset" />
          </mxGeometry>
        </mxCell>
        <mxCell id="CgW-vPD1ngV3lKJaUCEp-40" value="DataBase" style="shape=umlLifeline;perimeter=lifelinePerimeter;whiteSpace=wrap;html=1;container=1;collapsible=0;recursiveResize=0;outlineConnect=0;rounded=1;shadow=0;comic=0;labelBackgroundColor=none;strokeWidth=1;fontFamily=Verdana;fontSize=12;align=center;" vertex="1" parent="1">
          <mxGeometry x="1000" y="390" width="100" height="1000" as="geometry" />
        </mxCell>
        <mxCell id="CgW-vPD1ngV3lKJaUCEp-41" value="" style="html=1;points=[];perimeter=orthogonalPerimeter;rounded=0;shadow=0;comic=0;labelBackgroundColor=none;strokeColor=#000000;strokeWidth=1;fillColor=#FFFFFF;fontFamily=Verdana;fontSize=12;fontColor=#000000;align=center;" vertex="1" parent="CgW-vPD1ngV3lKJaUCEp-40">
          <mxGeometry x="45" y="130" width="10" height="60" as="geometry" />
        </mxCell>
        <mxCell id="CgW-vPD1ngV3lKJaUCEp-42" value="return" style="html=1;verticalAlign=bottom;endArrow=open;dashed=1;endSize=8;labelBackgroundColor=none;fontFamily=Verdana;fontSize=12;entryX=1.303;entryY=0.788;entryDx=0;entryDy=0;entryPerimeter=0;" edge="1" parent="CgW-vPD1ngV3lKJaUCEp-40" target="CgW-vPD1ngV3lKJaUCEp-48">
          <mxGeometry relative="1" as="geometry">
            <mxPoint x="-105" y="180" as="targetPoint" />
            <mxPoint x="35" y="180" as="sourcePoint" />
            <mxPoint as="offset" />
          </mxGeometry>
        </mxCell>
        <mxCell id="CgW-vPD1ngV3lKJaUCEp-69" value="" style="html=1;points=[];perimeter=orthogonalPerimeter;rounded=0;shadow=0;comic=0;labelBackgroundColor=none;strokeColor=#000000;strokeWidth=1;fillColor=#FFFFFF;fontFamily=Verdana;fontSize=12;fontColor=#000000;align=center;" vertex="1" parent="CgW-vPD1ngV3lKJaUCEp-40">
          <mxGeometry x="45" y="250" width="10" height="480" as="geometry" />
        </mxCell>
        <mxCell id="CgW-vPD1ngV3lKJaUCEp-111" value="return" style="html=1;verticalAlign=bottom;endArrow=open;dashed=1;endSize=8;labelBackgroundColor=none;fontFamily=Verdana;fontSize=12;" edge="1" parent="CgW-vPD1ngV3lKJaUCEp-40">
          <mxGeometry x="-0.0345" y="20" relative="1" as="geometry">
            <mxPoint x="-95" y="830" as="targetPoint" />
            <mxPoint x="45" y="830" as="sourcePoint" />
            <mxPoint as="offset" />
          </mxGeometry>
        </mxCell>
        <mxCell id="CgW-vPD1ngV3lKJaUCEp-43" value="1.進入公司車租借首頁" style="html=1;verticalAlign=bottom;endArrow=block;labelBackgroundColor=none;fontFamily=Verdana;fontSize=12;edgeStyle=elbowEdgeStyle;elbow=vertical;exitX=1.32;exitY=0.127;exitDx=0;exitDy=0;exitPerimeter=0;" edge="1" parent="1">
          <mxGeometry x="0.0245" y="10" relative="1" as="geometry">
            <mxPoint x="150.00000000000006" y="509.85" as="sourcePoint" />
            <mxPoint x="286.3" y="509.5" as="targetPoint" />
            <mxPoint as="offset" />
          </mxGeometry>
        </mxCell>
        <mxCell id="CgW-vPD1ngV3lKJaUCEp-44" value="Actor" style="shape=umlActor;verticalLabelPosition=bottom;verticalAlign=top;html=1;outlineConnect=0;" vertex="1" parent="1">
          <mxGeometry x="130" y="370" width="30" height="60" as="geometry" />
        </mxCell>
        <mxCell id="CgW-vPD1ngV3lKJaUCEp-45" value="" style="html=1;points=[];perimeter=orthogonalPerimeter;rounded=0;shadow=0;comic=0;labelBackgroundColor=none;strokeWidth=1;fontFamily=Verdana;fontSize=12;align=center;" vertex="1" parent="1">
          <mxGeometry x="140" y="490" width="10" height="830" as="geometry" />
        </mxCell>
        <mxCell id="CgW-vPD1ngV3lKJaUCEp-46" value="Model&lt;br&gt;CarUsageHitory" style="shape=umlLifeline;perimeter=lifelinePerimeter;whiteSpace=wrap;html=1;container=1;collapsible=0;recursiveResize=0;outlineConnect=0;rounded=1;shadow=0;comic=0;labelBackgroundColor=none;strokeWidth=1;fontFamily=Verdana;fontSize=12;align=center;" vertex="1" parent="1">
          <mxGeometry x="840" y="390" width="120" height="980" as="geometry" />
        </mxCell>
        <mxCell id="CgW-vPD1ngV3lKJaUCEp-53" value="" style="html=1;verticalAlign=bottom;endArrow=block;labelBackgroundColor=none;fontFamily=Verdana;fontSize=12;edgeStyle=elbowEdgeStyle;elbow=vertical;exitX=0.9;exitY=0.237;exitDx=0;exitDy=0;exitPerimeter=0;" edge="1" parent="CgW-vPD1ngV3lKJaUCEp-46">
          <mxGeometry relative="1" as="geometry">
            <mxPoint x="65" y="150" as="sourcePoint" />
            <mxPoint x="200" y="151" as="targetPoint" />
          </mxGeometry>
        </mxCell>
        <mxCell id="CgW-vPD1ngV3lKJaUCEp-54" value="4.1.連接資料庫" style="edgeLabel;html=1;align=center;verticalAlign=middle;resizable=0;points=[];" vertex="1" connectable="0" parent="CgW-vPD1ngV3lKJaUCEp-53">
          <mxGeometry x="-0.0493" y="2" relative="1" as="geometry">
            <mxPoint y="-8" as="offset" />
          </mxGeometry>
        </mxCell>
        <mxCell id="CgW-vPD1ngV3lKJaUCEp-48" value="" style="html=1;points=[];perimeter=orthogonalPerimeter;rounded=0;shadow=0;comic=0;labelBackgroundColor=none;strokeWidth=1;fontFamily=Verdana;fontSize=12;align=center;" vertex="1" parent="CgW-vPD1ngV3lKJaUCEp-46">
          <mxGeometry x="55" y="110" width="10" height="90" as="geometry" />
        </mxCell>
        <mxCell id="CgW-vPD1ngV3lKJaUCEp-102" value="" style="html=1;points=[];perimeter=orthogonalPerimeter;rounded=0;shadow=0;comic=0;labelBackgroundColor=none;strokeWidth=1;fontFamily=Verdana;fontSize=12;align=center;" vertex="1" parent="CgW-vPD1ngV3lKJaUCEp-46">
          <mxGeometry x="55" y="760" width="10" height="100" as="geometry" />
        </mxCell>
        <mxCell id="CgW-vPD1ngV3lKJaUCEp-49" value="" style="endArrow=none;dashed=1;html=1;rounded=0;exitX=0.52;exitY=0.011;exitDx=0;exitDy=0;exitPerimeter=0;" edge="1" parent="1" source="CgW-vPD1ngV3lKJaUCEp-45" target="CgW-vPD1ngV3lKJaUCEp-44">
          <mxGeometry width="50" height="50" relative="1" as="geometry">
            <mxPoint x="140" y="490" as="sourcePoint" />
            <mxPoint x="143" y="440" as="targetPoint" />
          </mxGeometry>
        </mxCell>
        <mxCell id="CgW-vPD1ngV3lKJaUCEp-50" value="Controller&lt;br&gt;CarUseageHistory" style="shape=umlLifeline;perimeter=lifelinePerimeter;whiteSpace=wrap;html=1;container=1;collapsible=0;recursiveResize=0;outlineConnect=0;rounded=1;shadow=0;comic=0;labelBackgroundColor=none;strokeWidth=1;fontFamily=Verdana;fontSize=12;align=center;" vertex="1" parent="1">
          <mxGeometry x="520" y="390" width="130" height="990" as="geometry" />
        </mxCell>
        <mxCell id="CgW-vPD1ngV3lKJaUCEp-64" value="3.1.經過Model" style="html=1;verticalAlign=bottom;endArrow=block;labelBackgroundColor=none;fontFamily=Verdana;fontSize=12;edgeStyle=elbowEdgeStyle;elbow=vertical;exitX=1.121;exitY=0.358;exitDx=0;exitDy=0;exitPerimeter=0;" edge="1" parent="CgW-vPD1ngV3lKJaUCEp-50">
          <mxGeometry x="0.4753" y="10" relative="1" as="geometry">
            <mxPoint x="70" y="140.17999999999995" as="sourcePoint" />
            <mxPoint x="375" y="140" as="targetPoint" />
            <Array as="points" />
            <mxPoint as="offset" />
          </mxGeometry>
        </mxCell>
        <mxCell id="CgW-vPD1ngV3lKJaUCEp-52" value="" style="html=1;points=[];perimeter=orthogonalPerimeter;rounded=0;shadow=0;comic=0;labelBackgroundColor=none;strokeWidth=1;fontFamily=Verdana;fontSize=12;align=center;" vertex="1" parent="CgW-vPD1ngV3lKJaUCEp-50">
          <mxGeometry x="60" y="100" width="10" height="90" as="geometry" />
        </mxCell>
        <mxCell id="CgW-vPD1ngV3lKJaUCEp-60" value="" style="html=1;points=[];perimeter=orthogonalPerimeter;rounded=0;shadow=0;comic=0;labelBackgroundColor=none;strokeWidth=1;fontFamily=Verdana;fontSize=12;align=center;" vertex="1" parent="CgW-vPD1ngV3lKJaUCEp-50">
          <mxGeometry x="60" y="210" width="10" height="680" as="geometry" />
        </mxCell>
        <mxCell id="CgW-vPD1ngV3lKJaUCEp-92" value="7.2.SQL Query&lt;br&gt;CheckStatus()" style="html=1;verticalAlign=bottom;endArrow=block;labelBackgroundColor=none;fontFamily=Verdana;fontSize=12;edgeStyle=elbowEdgeStyle;elbow=vertical;exitX=1.32;exitY=0.127;exitDx=0;exitDy=0;exitPerimeter=0;" edge="1" parent="CgW-vPD1ngV3lKJaUCEp-50">
          <mxGeometry x="0.0182" y="10" relative="1" as="geometry">
            <mxPoint x="70" y="510.72" as="sourcePoint" />
            <mxPoint x="520" y="510" as="targetPoint" />
            <mxPoint as="offset" />
            <Array as="points">
              <mxPoint x="85" y="510" />
            </Array>
          </mxGeometry>
        </mxCell>
        <mxCell id="CgW-vPD1ngV3lKJaUCEp-55" value="公司車租借Create" style="shape=umlLifeline;perimeter=lifelinePerimeter;whiteSpace=wrap;html=1;container=1;collapsible=0;recursiveResize=0;outlineConnect=0;rounded=1;shadow=0;comic=0;labelBackgroundColor=none;strokeWidth=1;fontFamily=Verdana;fontSize=12;align=center;" vertex="1" parent="1">
          <mxGeometry x="370" y="390" width="120" height="970" as="geometry" />
        </mxCell>
        <mxCell id="CgW-vPD1ngV3lKJaUCEp-90" value="" style="endArrow=none;dashed=1;html=1;rounded=0;exitX=0.001;exitY=0.494;exitDx=0;exitDy=0;exitPerimeter=0;entryX=0.999;entryY=0.494;entryDx=0;entryDy=0;entryPerimeter=0;" edge="1" parent="CgW-vPD1ngV3lKJaUCEp-55">
          <mxGeometry width="50" height="50" relative="1" as="geometry">
            <mxPoint x="-49.25" y="608.98" as="sourcePoint" />
            <mxPoint x="699.25" y="608.98" as="targetPoint" />
          </mxGeometry>
        </mxCell>
        <mxCell id="CgW-vPD1ngV3lKJaUCEp-89" value="[無空位]" style="text;html=1;align=center;verticalAlign=middle;resizable=0;points=[];autosize=1;strokeColor=none;fillColor=none;" vertex="1" parent="CgW-vPD1ngV3lKJaUCEp-55">
          <mxGeometry x="-40" y="580" width="70" height="30" as="geometry" />
        </mxCell>
        <mxCell id="CgW-vPD1ngV3lKJaUCEp-91" value="[有空位]" style="text;html=1;align=center;verticalAlign=middle;resizable=0;points=[];autosize=1;strokeColor=none;fillColor=none;" vertex="1" parent="CgW-vPD1ngV3lKJaUCEp-55">
          <mxGeometry x="-40" y="650" width="70" height="30" as="geometry" />
        </mxCell>
        <mxCell id="CgW-vPD1ngV3lKJaUCEp-98" value="return" style="html=1;verticalAlign=bottom;endArrow=open;dashed=1;endSize=8;labelBackgroundColor=none;fontFamily=Verdana;fontSize=12;" edge="1" parent="CgW-vPD1ngV3lKJaUCEp-55">
          <mxGeometry x="-0.0345" y="20" relative="1" as="geometry">
            <mxPoint x="220" y="570" as="targetPoint" />
            <mxPoint x="361" y="570" as="sourcePoint" />
            <mxPoint as="offset" />
          </mxGeometry>
        </mxCell>
        <mxCell id="CgW-vPD1ngV3lKJaUCEp-99" value="return ErrorMessage" style="html=1;verticalAlign=bottom;endArrow=open;dashed=1;endSize=8;labelBackgroundColor=none;fontFamily=Verdana;fontSize=12;" edge="1" parent="CgW-vPD1ngV3lKJaUCEp-55">
          <mxGeometry x="-0.1111" y="20" relative="1" as="geometry">
            <mxPoint x="66" y="570" as="targetPoint" />
            <mxPoint x="201" y="570" as="sourcePoint" />
            <mxPoint as="offset" />
          </mxGeometry>
        </mxCell>
        <mxCell id="CgW-vPD1ngV3lKJaUCEp-101" value="return" style="html=1;verticalAlign=bottom;endArrow=open;dashed=1;endSize=8;labelBackgroundColor=none;fontFamily=Verdana;fontSize=12;" edge="1" parent="CgW-vPD1ngV3lKJaUCEp-55">
          <mxGeometry x="-0.0345" y="20" relative="1" as="geometry">
            <mxPoint x="220" y="620" as="targetPoint" />
            <mxPoint x="360" y="620" as="sourcePoint" />
            <mxPoint as="offset" />
          </mxGeometry>
        </mxCell>
        <mxCell id="CgW-vPD1ngV3lKJaUCEp-104" value="2.1.經過Controller Index" style="html=1;verticalAlign=bottom;endArrow=block;labelBackgroundColor=none;fontFamily=Verdana;fontSize=12;edgeStyle=elbowEdgeStyle;elbow=vertical;" edge="1" parent="CgW-vPD1ngV3lKJaUCEp-55">
          <mxGeometry x="0.417" y="10" relative="1" as="geometry">
            <mxPoint x="-70" y="780.17" as="sourcePoint" />
            <mxPoint x="205" y="780.17" as="targetPoint" />
            <mxPoint as="offset" />
          </mxGeometry>
        </mxCell>
        <mxCell id="CgW-vPD1ngV3lKJaUCEp-56" value="" style="html=1;points=[];perimeter=orthogonalPerimeter;rounded=0;shadow=0;comic=0;labelBackgroundColor=none;strokeWidth=1;fontFamily=Verdana;fontSize=12;align=center;" vertex="1" parent="1">
          <mxGeometry x="425" y="620" width="10" height="510" as="geometry" />
        </mxCell>
        <mxCell id="CgW-vPD1ngV3lKJaUCEp-59" value="5.進入取用登記頁面" style="html=1;verticalAlign=bottom;endArrow=block;labelBackgroundColor=none;fontFamily=Verdana;fontSize=12;edgeStyle=elbowEdgeStyle;elbow=vertical;exitX=1.32;exitY=0.127;exitDx=0;exitDy=0;exitPerimeter=0;" edge="1" parent="1">
          <mxGeometry x="0.0245" y="10" relative="1" as="geometry">
            <mxPoint x="298.70000000000005" y="640.35" as="sourcePoint" />
            <mxPoint x="420" y="640" as="targetPoint" />
            <mxPoint as="offset" />
          </mxGeometry>
        </mxCell>
        <mxCell id="CgW-vPD1ngV3lKJaUCEp-62" value="6.提交預約" style="html=1;verticalAlign=bottom;endArrow=block;labelBackgroundColor=none;fontFamily=Verdana;fontSize=12;edgeStyle=elbowEdgeStyle;elbow=vertical;exitX=1.32;exitY=0.127;exitDx=0;exitDy=0;exitPerimeter=0;entryX=-0.233;entryY=0.073;entryDx=0;entryDy=0;entryPerimeter=0;" edge="1" parent="1" target="CgW-vPD1ngV3lKJaUCEp-60">
          <mxGeometry x="0.0245" y="10" relative="1" as="geometry">
            <mxPoint x="440.00000000000006" y="650.35" as="sourcePoint" />
            <mxPoint x="570" y="650" as="targetPoint" />
            <mxPoint as="offset" />
          </mxGeometry>
        </mxCell>
        <mxCell id="CgW-vPD1ngV3lKJaUCEp-63" value="Classes&lt;br&gt;CarUse" style="shape=umlLifeline;perimeter=lifelinePerimeter;whiteSpace=wrap;html=1;container=1;collapsible=0;recursiveResize=0;outlineConnect=0;rounded=1;shadow=0;comic=0;labelBackgroundColor=none;strokeWidth=1;fontFamily=Verdana;fontSize=12;align=center;" vertex="1" parent="1">
          <mxGeometry x="680" y="390" width="120" height="990" as="geometry" />
        </mxCell>
        <mxCell id="CgW-vPD1ngV3lKJaUCEp-97" value="return" style="html=1;verticalAlign=bottom;endArrow=open;dashed=1;endSize=8;labelBackgroundColor=none;fontFamily=Verdana;fontSize=12;" edge="1" parent="CgW-vPD1ngV3lKJaUCEp-63">
          <mxGeometry x="-0.4237" y="20" relative="1" as="geometry">
            <mxPoint x="65" y="569.37" as="targetPoint" />
            <mxPoint x="360" y="569.37" as="sourcePoint" />
            <mxPoint as="offset" />
            <Array as="points">
              <mxPoint x="210" y="569.87" />
            </Array>
          </mxGeometry>
        </mxCell>
        <mxCell id="CgW-vPD1ngV3lKJaUCEp-100" value="return" style="html=1;verticalAlign=bottom;endArrow=open;dashed=1;endSize=8;labelBackgroundColor=none;fontFamily=Verdana;fontSize=12;" edge="1" parent="CgW-vPD1ngV3lKJaUCEp-63">
          <mxGeometry x="-0.4237" y="20" relative="1" as="geometry">
            <mxPoint x="65" y="620" as="targetPoint" />
            <mxPoint x="360" y="620" as="sourcePoint" />
            <mxPoint as="offset" />
            <Array as="points">
              <mxPoint x="210" y="620.5" />
            </Array>
          </mxGeometry>
        </mxCell>
        <mxCell id="CgW-vPD1ngV3lKJaUCEp-112" value="return" style="html=1;verticalAlign=bottom;endArrow=open;dashed=1;endSize=8;labelBackgroundColor=none;fontFamily=Verdana;fontSize=12;" edge="1" parent="CgW-vPD1ngV3lKJaUCEp-63">
          <mxGeometry x="0.4426" relative="1" as="geometry">
            <mxPoint x="-90" y="840" as="targetPoint" />
            <mxPoint x="215" y="840.5" as="sourcePoint" />
            <mxPoint as="offset" />
          </mxGeometry>
        </mxCell>
        <mxCell id="CgW-vPD1ngV3lKJaUCEp-67" value="" style="html=1;points=[];perimeter=orthogonalPerimeter;rounded=0;shadow=0;comic=0;labelBackgroundColor=none;strokeWidth=1;fontFamily=Verdana;fontSize=12;align=center;" vertex="1" parent="1">
          <mxGeometry x="735" y="940" width="10" height="120" as="geometry" />
        </mxCell>
        <mxCell id="CgW-vPD1ngV3lKJaUCEp-51" value="return" style="html=1;verticalAlign=bottom;endArrow=open;dashed=1;endSize=8;labelBackgroundColor=none;fontFamily=Verdana;fontSize=12;" edge="1" parent="1">
          <mxGeometry x="0.4426" relative="1" as="geometry">
            <mxPoint x="591" y="559.5" as="targetPoint" />
            <mxPoint x="896" y="560" as="sourcePoint" />
            <mxPoint as="offset" />
          </mxGeometry>
        </mxCell>
        <mxCell id="CgW-vPD1ngV3lKJaUCEp-68" value="7.1.SQL Query&lt;br&gt;AccHumMain" style="html=1;verticalAlign=bottom;endArrow=block;labelBackgroundColor=none;fontFamily=Verdana;fontSize=12;edgeStyle=elbowEdgeStyle;elbow=vertical;exitX=1.32;exitY=0.127;exitDx=0;exitDy=0;exitPerimeter=0;" edge="1" parent="1" target="CgW-vPD1ngV3lKJaUCEp-40">
          <mxGeometry x="0.0182" y="10" relative="1" as="geometry">
            <mxPoint x="585" y="660.35" as="sourcePoint" />
            <mxPoint x="730" y="660" as="targetPoint" />
            <mxPoint as="offset" />
          </mxGeometry>
        </mxCell>
        <mxCell id="CgW-vPD1ngV3lKJaUCEp-61" value="alt" style="shape=umlFrame;whiteSpace=wrap;html=1;pointerEvents=0;" vertex="1" parent="1">
          <mxGeometry x="330" y="695" width="750" height="145" as="geometry" />
        </mxCell>
        <mxCell id="CgW-vPD1ngV3lKJaUCEp-75" value="" style="endArrow=none;dashed=1;html=1;rounded=0;exitX=0.001;exitY=0.494;exitDx=0;exitDy=0;exitPerimeter=0;" edge="1" parent="1">
          <mxGeometry width="50" height="50" relative="1" as="geometry">
            <mxPoint x="330.0000000000002" y="780.0000000000001" as="sourcePoint" />
            <mxPoint x="1080" y="780" as="targetPoint" />
          </mxGeometry>
        </mxCell>
        <mxCell id="CgW-vPD1ngV3lKJaUCEp-76" value="[無效帳戶]" style="text;html=1;align=center;verticalAlign=middle;resizable=0;points=[];autosize=1;strokeColor=none;fillColor=none;" vertex="1" parent="1">
          <mxGeometry x="335" y="740" width="80" height="30" as="geometry" />
        </mxCell>
        <mxCell id="CgW-vPD1ngV3lKJaUCEp-77" value="[有效帳戶]" style="text;html=1;align=center;verticalAlign=middle;resizable=0;points=[];autosize=1;strokeColor=none;fillColor=none;" vertex="1" parent="1">
          <mxGeometry x="335" y="790" width="80" height="30" as="geometry" />
        </mxCell>
        <mxCell id="CgW-vPD1ngV3lKJaUCEp-78" value="return" style="html=1;verticalAlign=bottom;endArrow=open;dashed=1;endSize=8;labelBackgroundColor=none;fontFamily=Verdana;fontSize=12;" edge="1" parent="1">
          <mxGeometry x="-0.4237" y="20" relative="1" as="geometry">
            <mxPoint x="744" y="720" as="targetPoint" />
            <mxPoint x="1039" y="720" as="sourcePoint" />
            <mxPoint as="offset" />
          </mxGeometry>
        </mxCell>
        <mxCell id="CgW-vPD1ngV3lKJaUCEp-79" value="return" style="html=1;verticalAlign=bottom;endArrow=open;dashed=1;endSize=8;labelBackgroundColor=none;fontFamily=Verdana;fontSize=12;" edge="1" parent="1">
          <mxGeometry x="-0.0345" y="20" relative="1" as="geometry">
            <mxPoint x="590" y="740" as="targetPoint" />
            <mxPoint x="735" y="740" as="sourcePoint" />
            <mxPoint as="offset" />
          </mxGeometry>
        </mxCell>
        <mxCell id="CgW-vPD1ngV3lKJaUCEp-80" value="return ErrorMessage" style="html=1;verticalAlign=bottom;endArrow=open;dashed=1;endSize=8;labelBackgroundColor=none;fontFamily=Verdana;fontSize=12;" edge="1" parent="1">
          <mxGeometry x="-0.1111" y="20" relative="1" as="geometry">
            <mxPoint x="435" y="750" as="targetPoint" />
            <mxPoint x="570" y="750" as="sourcePoint" />
            <mxPoint as="offset" />
          </mxGeometry>
        </mxCell>
        <mxCell id="CgW-vPD1ngV3lKJaUCEp-81" value="return" style="html=1;verticalAlign=bottom;endArrow=open;dashed=1;endSize=8;labelBackgroundColor=none;fontFamily=Verdana;fontSize=12;" edge="1" parent="1">
          <mxGeometry x="-0.4237" y="20" relative="1" as="geometry">
            <mxPoint x="745" y="800" as="targetPoint" />
            <mxPoint x="1040" y="800" as="sourcePoint" />
            <mxPoint as="offset" />
            <Array as="points">
              <mxPoint x="890" y="800.5" />
            </Array>
          </mxGeometry>
        </mxCell>
        <mxCell id="CgW-vPD1ngV3lKJaUCEp-82" value="return" style="html=1;verticalAlign=bottom;endArrow=open;dashed=1;endSize=8;labelBackgroundColor=none;fontFamily=Verdana;fontSize=12;" edge="1" parent="1">
          <mxGeometry x="0.0345" y="19" relative="1" as="geometry">
            <mxPoint x="590" y="804.38" as="targetPoint" />
            <mxPoint x="735" y="804.38" as="sourcePoint" />
            <mxPoint as="offset" />
          </mxGeometry>
        </mxCell>
        <mxCell id="CgW-vPD1ngV3lKJaUCEp-86" value="return" style="html=1;verticalAlign=bottom;endArrow=open;dashed=1;endSize=8;labelBackgroundColor=none;fontFamily=Verdana;fontSize=12;" edge="1" parent="1">
          <mxGeometry relative="1" as="geometry">
            <mxPoint x="150" y="200" as="targetPoint" />
            <mxPoint x="280" y="200" as="sourcePoint" />
          </mxGeometry>
        </mxCell>
        <mxCell id="CgW-vPD1ngV3lKJaUCEp-85" value="return" style="html=1;verticalAlign=bottom;endArrow=open;dashed=1;endSize=8;labelBackgroundColor=none;fontFamily=Verdana;fontSize=12;" edge="1" parent="1">
          <mxGeometry relative="1" as="geometry">
            <mxPoint x="150" y="1270" as="targetPoint" />
            <mxPoint x="290" y="1270" as="sourcePoint" />
            <mxPoint as="offset" />
            <Array as="points" />
          </mxGeometry>
        </mxCell>
        <mxCell id="CgW-vPD1ngV3lKJaUCEp-87" value="alt" style="shape=umlFrame;whiteSpace=wrap;html=1;pointerEvents=0;" vertex="1" parent="1">
          <mxGeometry x="330" y="930" width="750" height="180" as="geometry" />
        </mxCell>
        <mxCell id="CgW-vPD1ngV3lKJaUCEp-83" value="7.3. ApplicationDbContext.Add" style="html=1;verticalAlign=bottom;endArrow=block;labelBackgroundColor=none;fontFamily=Verdana;fontSize=12;edgeStyle=elbowEdgeStyle;elbow=vertical;" edge="1" parent="1">
          <mxGeometry x="0.1646" y="-30" relative="1" as="geometry">
            <mxPoint x="600" y="1070" as="sourcePoint" />
            <mxPoint x="1040" y="1070" as="targetPoint" />
            <mxPoint as="offset" />
          </mxGeometry>
        </mxCell>
        <mxCell id="CgW-vPD1ngV3lKJaUCEp-36" value="公司車租借Index" style="shape=umlLifeline;perimeter=lifelinePerimeter;whiteSpace=wrap;html=1;container=1;collapsible=0;recursiveResize=0;outlineConnect=0;rounded=1;shadow=0;comic=0;labelBackgroundColor=none;strokeWidth=1;fontFamily=Verdana;fontSize=12;align=center;" vertex="1" parent="1">
          <mxGeometry x="240" y="390" width="100" height="1020" as="geometry" />
        </mxCell>
        <mxCell id="CgW-vPD1ngV3lKJaUCEp-38" value="2.1.經過Controller Index" style="html=1;verticalAlign=bottom;endArrow=block;labelBackgroundColor=none;fontFamily=Verdana;fontSize=12;edgeStyle=elbowEdgeStyle;elbow=vertical;entryX=-0.267;entryY=0.352;entryDx=0;entryDy=0;entryPerimeter=0;" edge="1" parent="CgW-vPD1ngV3lKJaUCEp-36" target="CgW-vPD1ngV3lKJaUCEp-52">
          <mxGeometry x="0.417" y="10" relative="1" as="geometry">
            <mxPoint x="55" y="130" as="sourcePoint" />
            <mxPoint x="330" y="130" as="targetPoint" />
            <mxPoint as="offset" />
          </mxGeometry>
        </mxCell>
        <mxCell id="CgW-vPD1ngV3lKJaUCEp-39" value="return" style="html=1;verticalAlign=bottom;endArrow=open;dashed=1;endSize=8;labelBackgroundColor=none;fontFamily=Verdana;fontSize=12;" edge="1" parent="CgW-vPD1ngV3lKJaUCEp-36">
          <mxGeometry x="-0.4507" y="1" relative="1" as="geometry">
            <mxPoint x="55" y="170" as="targetPoint" />
            <mxPoint x="340" y="170" as="sourcePoint" />
            <mxPoint as="offset" />
          </mxGeometry>
        </mxCell>
        <mxCell id="CgW-vPD1ngV3lKJaUCEp-37" value="" style="html=1;points=[];perimeter=orthogonalPerimeter;rounded=0;shadow=0;comic=0;labelBackgroundColor=none;strokeWidth=1;fontFamily=Verdana;fontSize=12;align=center;" vertex="1" parent="CgW-vPD1ngV3lKJaUCEp-36">
          <mxGeometry x="45" y="100" width="10" height="830" as="geometry" />
        </mxCell>
        <mxCell id="CgW-vPD1ngV3lKJaUCEp-106" value="" style="html=1;verticalAlign=bottom;endArrow=block;labelBackgroundColor=none;fontFamily=Verdana;fontSize=12;edgeStyle=elbowEdgeStyle;elbow=vertical;exitX=0.9;exitY=0.237;exitDx=0;exitDy=0;exitPerimeter=0;" edge="1" parent="1" source="CgW-vPD1ngV3lKJaUCEp-103">
          <mxGeometry relative="1" as="geometry">
            <mxPoint x="910" y="1190" as="sourcePoint" />
            <mxPoint x="1045" y="1191" as="targetPoint" />
          </mxGeometry>
        </mxCell>
        <mxCell id="CgW-vPD1ngV3lKJaUCEp-105" value="3.2.經過Model" style="html=1;verticalAlign=bottom;endArrow=block;labelBackgroundColor=none;fontFamily=Verdana;fontSize=12;edgeStyle=elbowEdgeStyle;elbow=vertical;" edge="1" parent="1">
          <mxGeometry x="0.4753" y="10" relative="1" as="geometry">
            <mxPoint x="589.6666666666667" y="1180" as="sourcePoint" />
            <mxPoint x="895" y="1180" as="targetPoint" />
            <Array as="points">
              <mxPoint x="685" y="1180" />
              <mxPoint x="695" y="1250" />
            </Array>
            <mxPoint as="offset" />
          </mxGeometry>
        </mxCell>
        <mxCell id="CgW-vPD1ngV3lKJaUCEp-109" value="" style="html=1;verticalAlign=bottom;endArrow=block;labelBackgroundColor=none;fontFamily=Verdana;fontSize=12;edgeStyle=elbowEdgeStyle;elbow=vertical;exitX=0.9;exitY=0.237;exitDx=0;exitDy=0;exitPerimeter=0;" edge="1" parent="1" target="CgW-vPD1ngV3lKJaUCEp-103">
          <mxGeometry relative="1" as="geometry">
            <mxPoint x="910" y="1190" as="sourcePoint" />
            <mxPoint x="1045" y="1191" as="targetPoint" />
          </mxGeometry>
        </mxCell>
        <mxCell id="CgW-vPD1ngV3lKJaUCEp-110" value="4.1.連接資料庫" style="edgeLabel;html=1;align=center;verticalAlign=middle;resizable=0;points=[];" vertex="1" connectable="0" parent="CgW-vPD1ngV3lKJaUCEp-109">
          <mxGeometry x="-0.0493" y="2" relative="1" as="geometry">
            <mxPoint y="-8" as="offset" />
          </mxGeometry>
        </mxCell>
        <mxCell id="CgW-vPD1ngV3lKJaUCEp-103" value="" style="html=1;points=[];perimeter=orthogonalPerimeter;rounded=0;shadow=0;comic=0;labelBackgroundColor=none;strokeWidth=1;fontFamily=Verdana;fontSize=12;align=center;" vertex="1" parent="1">
          <mxGeometry x="1045" y="1170" width="10" height="80" as="geometry" />
        </mxCell>
        <mxCell id="CgW-vPD1ngV3lKJaUCEp-84" value="return" style="html=1;verticalAlign=bottom;endArrow=open;dashed=1;endSize=8;labelBackgroundColor=none;fontFamily=Verdana;fontSize=12;" edge="1" parent="1">
          <mxGeometry x="-0.4237" y="20" relative="1" as="geometry">
            <mxPoint x="300" y="1240" as="targetPoint" />
            <mxPoint x="575" y="1240" as="sourcePoint" />
            <mxPoint as="offset" />
            <Array as="points">
              <mxPoint x="445" y="1240.5" />
            </Array>
          </mxGeometry>
        </mxCell>
      </root>
    </mxGraphModel>
  </diagram>
</mxfile>
